<?xml version="1.0" encoding="UTF-8"?>
<svg version="1.1" xmlns="http://www.w3.org/2000/svg" width="100" height="100">
<path d="M0 0 C4.01632122 0.32882507 6.14526669 1.53644171 9.57397461 3.63183594 C10.14817642 3.97748596 10.72237823 4.32313599 11.3139801 4.67926025 C13.13887651 5.78143415 14.95209111 6.90131627 16.76538086 8.02246094 C17.97882565 8.76067091 19.19301286 9.49766198 20.40795898 10.23339844 C22.71388231 11.63109949 25.01575626 13.03474653 27.31567383 14.44238281 C30.62018251 16.45004994 33.95405318 18.38430995 37.32788086 20.27246094 C34.51926692 23.29878739 31.79686691 25.34002872 28.18725586 27.33105469 C27.19854492 27.88212891 26.20983398 28.43320312 25.19116211 29.00097656 C23.65008789 29.84692383 23.65008789 29.84692383 22.07788086 30.70996094 C20.05087351 31.83191596 18.02481372 32.95558479 15.99975586 34.08105469 C15.02973633 34.61585449 14.0597168 35.1506543 13.06030273 35.70166016 C9.97182664 37.47714757 7.04343319 39.42626456 4.15307617 41.50708008 C1.51153657 42.6147883 0.0424822 42.1099336 -2.67211914 41.27246094 C-4.58543072 40.35547974 -6.46426452 39.36475014 -8.31274414 38.32324219 C-9.91956055 37.4212207 -9.91956055 37.4212207 -11.55883789 36.50097656 C-12.6687207 35.86869141 -13.77860352 35.23640625 -14.92211914 34.58496094 C-16.0165332 33.97201172 -17.11094727 33.3590625 -18.23852539 32.72753906 C-24.56453808 29.15542531 -30.70344777 25.41545489 -36.67211914 21.27246094 C-33.01161921 18.1899572 -29.26002277 15.76575416 -25.09399414 13.41699219 C-24.48195129 13.06988693 -23.86990845 12.72278168 -23.23931885 12.36515808 C-21.30256691 11.26760449 -19.36256018 10.17597681 -17.42211914 9.08496094 C-15.46796435 7.98226617 -13.51453 6.87832651 -11.56207275 5.77262878 C-9.80168939 4.77629564 -8.0392007 3.78368509 -6.27661133 2.79125977 C-1.80580539 0.1841278 -1.80580539 0.1841278 0 0 Z " fill="#218BE6" transform="translate(49.672119140625,5.7275390625)"/>
<path d="M0 0 C0.32275334 5.97685713 0.55781436 11.94860005 0.71411133 17.93212891 C0.77927325 19.96395211 0.86784079 21.99517046 0.98071289 24.02490234 C1.89137405 40.82886703 1.89137405 40.82886703 -2.53857422 45.9140625 C-5.93809306 48.01261845 -9.29645907 49.51166346 -13 51 C-15.03692376 52.17207303 -17.05408769 53.37936268 -19.046875 54.625 C-20.94719813 55.7512133 -22.84823212 56.87622807 -24.75 58 C-26.22339844 58.87591797 -26.22339844 58.87591797 -27.7265625 59.76953125 C-29.12261719 60.59517578 -29.12261719 60.59517578 -30.546875 61.4375 C-31.38057617 61.93121094 -32.21427734 62.42492187 -33.07324219 62.93359375 C-35 64 -35 64 -36 64 C-36 49.48 -36 34.96 -36 20 C-23.5 12.8125 -23.5 12.8125 -19.60742188 10.57739258 C-14.78033368 7.7970108 -9.97204172 5.01768496 -5.28125 2.01171875 C-2 0 -2 0 0 0 Z " fill="#218BE6" transform="translate(88,30)"/>
<path d="M0 0 C4.08223356 1.50834102 7.73553623 3.460482 11.5078125 5.625 C12.115112 5.97256348 12.7224115 6.32012695 13.34811401 6.67822266 C14.62470957 7.40961771 15.90042241 8.14255541 17.17529297 8.87695312 C19.12406435 9.99946106 21.07544247 11.1173201 23.02734375 12.234375 C32.50651627 17.67101085 32.50651627 17.67101085 36 20 C36.36076355 21.91091919 36.36076355 21.91091919 36.34057617 24.26611328 C36.34023628 25.58725632 36.34023628 25.58725632 36.33988953 26.93508911 C36.32440567 27.88721283 36.30892181 28.83933655 36.29296875 29.8203125 C36.28872391 30.79410858 36.28447906 31.76790466 36.28010559 32.77120972 C36.26327786 35.88941805 36.22561811 39.00698617 36.1875 42.125 C36.17245846 44.23566777 36.15876914 46.34634564 36.14648438 48.45703125 C36.11336109 53.63824023 36.06312151 58.81907439 36 64 C35.12061768 63.49718506 34.24123535 62.99437012 33.33520508 62.47631836 C27.58441043 59.18878706 21.83277512 55.90283164 16.07421875 52.62890625 C15.17638672 52.11779297 14.27855469 51.60667969 13.35351562 51.08007812 C11.526062 50.03983529 9.69790046 49.0008354 7.86914062 47.96289062 C6.98806641 47.46080078 6.10699219 46.95871094 5.19921875 46.44140625 C4.02105591 45.77153687 4.02105591 45.77153687 2.8190918 45.08813477 C1 44 1 44 0 43 C-0.09268999 41.64905018 -0.11747326 40.29332909 -0.11352539 38.93920898 C-0.11344986 38.07839218 -0.11337433 37.21757538 -0.11329651 36.33067322 C-0.10813522 35.39526199 -0.10297394 34.45985077 -0.09765625 33.49609375 C-0.0962413 32.54307877 -0.09482635 31.59006378 -0.09336853 30.60816956 C-0.08775152 27.55124835 -0.07519616 24.49439923 -0.0625 21.4375 C-0.05748719 19.37044376 -0.05292391 17.30338638 -0.04882812 15.23632812 C-0.03777656 10.15752412 -0.02050055 5.0787743 0 0 Z " fill="#218BE6" transform="translate(12,30)"/>
</svg>
